<?xml version="1.0" encoding="utf-8"?>
<!-- Generator: Adobe Illustrator 24.2.1, SVG Export Plug-In . SVG Version: 6.00 Build 0)  -->
<svg version="1.1" xmlns="http://www.w3.org/2000/svg" xmlns:xlink="http://www.w3.org/1999/xlink" x="0px" y="0px"
	 viewBox="0 0 261.1 59.1" style="enable-background:new 0 0 261.1 59.1;" xml:space="preserve">
<style type="text/css">
	.st0{fill:url(#SVGID_1_);}
	.st1{fill:url(#SVGID_2_);}
	.st2{fill:#353D41;}
	.st3{fill:#0B273D;}
	.st4{fill:#0C2032;}
	.st5{fill:#0A1B2B;}
	.st6{fill:#DCF2FD;}
	.st7{fill:#5DB0E2;}
	.st8{fill:#3896D2;}
	.st9{fill:#2586C4;}
	.st10{fill:#D0EEFC;}
	.st11{fill:#4C97D2;}
	.st12{fill:#2C7ABF;}
	.st13{fill:#1668B1;}
	.st14{fill:#414141;}
	.st15{fill:#FFFFFF;}
</style>
<g id="Layer_3">
	<linearGradient id="SVGID_1_" gradientUnits="userSpaceOnUse" x1="77.135" y1="35.1414" x2="261.1301" y2="35.1414">
		<stop  offset="0" style="stop-color:#343C40"/>
		<stop  offset="0.3324" style="stop-color:#09273C"/>
		<stop  offset="0.6955" style="stop-color:#0B1F32"/>
		<stop  offset="1" style="stop-color:#091A2B"/>
	</linearGradient>
	<path class="st0" d="M81.1,19.1h20v4h-16v4h12v4h4v12h-4v4h-16v-4h-4v-4h8v4h8v-12h-12v-4h-4v-4h4V19.1z M117.1,19.1h-8v8h-4v4h4
		v12h4v4h8v-4h-4v-12h4v-4h-4V19.1z M145.1,31.1h4v16h-20v-4h-4v-4h4v-4h12v-4h-12v-4h16V31.1z M141.1,39.1h-8v4h8V39.1z
		 M165.1,19.1h-8v8h-4v4h4v12h4v4h8v-4h-4v-12h4v-4h-4V19.1z M177.1,31.1h-4v4h4v4h12v4h-16v4h20v-4h4v-4h-4v-4h-12v-4h16v-4h-20
		V31.1z M201.1,23.1h8v-4h-8V23.1z M201.1,47.1h8v-20h-8V47.1z M221.1,23.1h-4v4h-4v4h4v16h8v-16h8v-4h-8v-4h8v-4h-12V23.1z
		 M253.1,27.1v12h-8v-12h-8v12h4v4h12v4h-16v4h20v-4h4v-20H253.1z"/>
	<linearGradient id="SVGID_2_" gradientUnits="userSpaceOnUse" x1="77.1355" y1="31.1423" x2="261.1306" y2="31.1423">
		<stop  offset="0" style="stop-color:#D0EEFC"/>
		<stop  offset="0.3324" style="stop-color:#4C97D2"/>
		<stop  offset="0.6955" style="stop-color:#2C7ABF"/>
		<stop  offset="1" style="stop-color:#1668B1"/>
	</linearGradient>
	<path class="st1" d="M81.1,15.1h20v4h-16v4h12v4h4v12h-4v4h-16v-4h-4v-4h8v4h8v-12h-12v-4h-4v-4h4V15.1z M117.1,15.1h-8v8h-4v4h4
		v12h4v4h8v-4h-4v-12h4v-4h-4V15.1z M145.1,27.1h4v16h-20v-4h-4v-4h4v-4h12v-4h-12v-4h16V27.1z M141.1,35.1h-8v4h8V35.1z
		 M165.1,15.1h-8v8h-4v4h4v12h4v4h8v-4h-4v-12h4v-4h-4V15.1z M177.1,27.1h-4v4h4v4h12v4h-16v4h20v-4h4v-4h-4v-4h-12v-4h16v-4h-20
		V27.1z M201.1,19.1h8v-4h-8V19.1z M201.1,43.1h8v-20h-8V43.1z M221.1,19.1h-4v4h-4v4h4v16h8v-16h8v-4h-8v-4h8v-4h-12V19.1z
		 M253.1,23.1v12h-8v-12h-8v12h4v4h12v4h-16v4h20v-4h4v-20H253.1z"/>
</g>
<g id="Layer_5">
	<polygon class="st2" points="12.3,44.3 12.3,56.6 9.9,56.6 9.9,59.1 2.4,59.1 2.4,56.6 0,56.6 0,44.3 2.4,44.3 2.4,41.8 9.9,41.8
		9.9,44.3 	"/>
	<polygon class="st3" points="29.5,34.5 29.5,56.6 27.1,56.6 27.1,59.1 19.7,59.1 19.7,56.6 17.2,56.6 17.2,34.5 19.7,34.5 19.7,32
		27.1,32 27.1,34.5 	"/>
	<polygon class="st4" points="46.8,36.9 46.8,56.6 44.3,56.6 44.3,59.1 36.9,59.1 36.9,56.6 34.5,56.6 34.5,36.9 36.9,36.9
		36.9,34.5 44.3,34.5 44.3,36.9 	"/>
	<polygon class="st5" points="64,27.1 64,56.6 61.6,56.6 61.6,59.1 54.1,59.1 54.1,56.6 51.7,56.6 51.7,27.1 54.1,27.1 54.1,24.6
		61.6,24.6 61.6,27.1 	"/>
	<polygon class="st6" points="12.3,39.4 12.3,51.7 9.9,51.7 9.9,54.2 2.4,54.2 2.4,51.7 0,51.7 0,39.4 2.4,39.4 2.4,36.9 9.9,36.9
		9.9,39.4 	"/>
	<polygon class="st7" points="29.5,29.5 29.5,51.7 27.1,51.7 27.1,54.2 19.7,54.2 19.7,51.7 17.2,51.7 17.2,29.5 19.7,29.5
		19.7,27.1 27.1,27.1 27.1,29.5 	"/>
	<polygon class="st8" points="46.8,32 46.8,51.7 44.3,51.7 44.3,54.2 36.9,54.2 36.9,51.7 34.5,51.7 34.5,32 36.9,32 36.9,29.5
		44.3,29.5 44.3,32 	"/>
	<polygon class="st9" points="64,22.2 64,51.7 61.6,51.7 61.6,54.2 54.1,54.2 54.1,51.7 51.7,51.7 51.7,22.2 54.1,22.2 54.1,19.7
		61.6,19.7 61.6,22.2 	"/>
	<polygon class="st10" points="12.3,41.8 12.3,54.2 9.9,54.2 9.9,56.6 2.4,56.6 2.4,54.2 0,54.2 0,41.8 2.4,41.8 2.4,39.4 9.9,39.4
		9.9,41.8 	"/>
	<polygon class="st11" points="29.5,32 29.5,54.2 27.1,54.2 27.1,56.6 19.7,56.6 19.7,54.2 17.2,54.2 17.2,32 19.7,32 19.7,29.5
		27.1,29.5 27.1,32 	"/>
	<polygon class="st12" points="46.8,34.5 46.8,54.2 44.3,54.2 44.3,56.6 36.9,56.6 36.9,54.2 34.5,54.2 34.5,34.5 36.9,34.5
		36.9,32 44.3,32 44.3,34.5 	"/>
	<polygon class="st13" points="64,24.6 64,54.2 61.6,54.2 61.6,56.6 54.1,56.6 54.1,54.2 51.7,54.2 51.7,24.6 54.1,24.6 54.1,22.2
		61.6,22.2 61.6,24.6 	"/>
	<path class="st14" d="M54,2.4v2.6h2.5v2.3H54v2.5h-2.4v2.4h-2.5v2.5h-2.5v2.5h-2.4v2.5h-2.5v2.5h-2.4v-2.5h-2.5v-2.5h-2.5v-2.5
		h-2.5v-2.4h-2.4V9.8H27V7.4h-7.4v2.5h-2.4v2.5h-2.5v2.5h-2.5v2.4H9.8v2.5H7.4v2.5H4.9v2.5H2.5v2.4H0V32h4.9v-2.5h2.4v-2.5h2.5v-2.4
		h2.5v-2.5h2.5v-2.5h2.5v-2.5h2.4v-2.4H27v2.4h2.5v2.5h2.4v2.5h2.5v2.4h2.5v2.5h7.4v-2.4h2.5v-2.5h2.5v-2.5h2.4v-2.5H54v-2.4h2.5
		v-2.5H59V9.8h2.4v2.5H64V2.4H54z M61.4,5.1V4.9h0L61.4,5.1L61.4,5.1z"/>
	<path class="st15" d="M54,0v2.6h2.5v2.3H54v2.5h-2.4v2.4h-2.5v2.5h-2.5v2.5h-2.4v2.5h-2.5v2.5h-2.4v-2.5h-2.5v-2.5h-2.5v-2.5h-2.5
		V9.9h-2.4V7.4H27V4.9h-7.4v2.5h-2.4v2.5h-2.5v2.5h-2.5v2.4H9.8v2.5H7.4v2.5H4.9v2.5H2.5v2.4H0v4.9h4.9v-2.5h2.4v-2.5h2.5v-2.4h2.5
		v-2.5h2.5v-2.5h2.5v-2.5h2.4v-2.4H27v2.4h2.5v2.5h2.4v2.5h2.5v2.4h2.5v2.5h7.4v-2.4h2.5v-2.5h2.5v-2.5h2.4v-2.5H54v-2.4h2.5V9.9H59
		V7.4h2.4v2.5H64V0H54z M61.4,2.6V2.5h0L61.4,2.6L61.4,2.6z"/>
</g>
</svg>