<?xml version="1.0" encoding="utf-8"?>
<!-- Generator: Adobe Illustrator 24.2.1, SVG Export Plug-In . SVG Version: 6.00 Build 0)  -->
<svg version="1.1" id="Layer_2_1_" xmlns="http://www.w3.org/2000/svg" xmlns:xlink="http://www.w3.org/1999/xlink" x="0px" y="0px"
	 viewBox="0 0 1000 1000" style="enable-background:new 0 0 1000 1000;" xml:space="preserve">
<style type="text/css">
	.st0{fill:#FFFFFF;}
</style>
<path class="st0" d="M959.6,431.9v136.3c0,16.4-13.3,29.8-29.8,29.8H603.6c-3.1,0-5.7,2.5-5.7,5.7v326.2c0,16.4-13.3,29.8-29.8,29.8
	H431.8c-16.4,0-29.8-13.3-29.8-29.8V603.6c0-3.1-2.5-5.7-5.7-5.7H70.2c-16.4,0-29.8-13.3-29.8-29.8V431.8
	c0-16.4,13.3-29.8,29.8-29.8h326.2c3.1,0,5.7-2.5,5.7-5.7V70.2c0-16.4,13.3-29.8,29.8-29.8h136.3c16.4,0,29.8,13.3,29.8,29.8v326.2
	c0,3.1,2.5,5.7,5.7,5.7h326.2C946.3,402.1,959.6,415.4,959.6,431.9z"/>
</svg>