<?xml version="1.0" encoding="utf-8"?>
<!-- Generator: Adobe Illustrator 24.2.1, SVG Export Plug-In . SVG Version: 6.00 Build 0)  -->
<svg version="1.1" xmlns="http://www.w3.org/2000/svg" xmlns:xlink="http://www.w3.org/1999/xlink" x="0px" y="0px"
	 viewBox="0 0 1000 1000" style="enable-background:new 0 0 1000 1000;" xml:space="preserve">
<style type="text/css">
	.st0{fill:#FFFFFF;}
</style>
<g id="Layer_3">
</g>
<g id="Layer_4">
</g>
<g id="Layer_2">
	<path class="st0" d="M136.3,970.1H24.8c-13.9,0-25.2-11.3-25.2-25.2V651.9c0-13.9,11.3-25.2,25.2-25.2h111.5
		c13.9,0,25.2,11.3,25.2,25.2V945C161.5,958.8,150.2,970.1,136.3,970.1z"/>
	<path class="st0" d="M415.5,970.1H304c-13.9,0-25.2-11.3-25.2-25.2V485.7c0-13.9,11.3-25.2,25.2-25.2h111.5
		c13.9,0,25.2,11.3,25.2,25.2V945C440.7,958.8,429.4,970.1,415.5,970.1z"/>
	<path class="st0" d="M694.7,970.1H583.2c-13.9,0-25.2-11.3-25.2-25.2V549.1c0-13.9,11.3-25.2,25.2-25.2h111.5
		c13.9,0,25.2,11.3,25.2,25.2V945C719.9,958.8,708.6,970.1,694.7,970.1z"/>
	<path class="st0" d="M973.9,970.1H862.4c-13.9,0-25.2-11.3-25.2-25.2V378.5c0-13.9,11.3-25.2,25.2-25.2h111.5
		c13.9,0,25.2,11.3,25.2,25.2V945C999.1,958.8,987.8,970.1,973.9,970.1z"/>
	<g>
		<path class="st0" d="M32.1,526.7c-10.4,0-20.6-5-26.9-14.3c-10-14.8-6.1-35,8.7-45l334.6-226.1c9.1-6.1,20.6-7.3,30.7-3
			l250.3,104.8L943.3,37.1c12.8-12.5,33.4-12.2,45.9,0.6c12.5,12.8,12.2,33.4-0.6,45.9L659.4,404.4c-9.3,9.1-23.2,11.7-35.2,6.7
			L370.3,304.8L50.3,521.1C44.7,524.9,38.4,526.7,32.1,526.7z"/>
	</g>
	<g>
		<path class="st0" d="M965.9,209.1c-17.9,0-32.4-14.5-32.4-32.4V60.7c0-17.9,14.5-32.4,32.4-32.4c17.9,0,32.4,14.5,32.4,32.4v115.9
			C998.4,194.5,983.8,209.1,965.9,209.1z"/>
	</g>
	<g>
		<path class="st0" d="M965.9,92.8H850c-17.9,0-32.4-14.5-32.4-32.4s14.5-32.4,32.4-32.4h115.9c17.9,0,32.4,14.5,32.4,32.4
			S983.8,92.8,965.9,92.8z"/>
	</g>
</g>
</svg>
