<?xml version="1.0" encoding="utf-8"?>
<!-- Generator: Adobe Illustrator 24.2.1, SVG Export Plug-In . SVG Version: 6.00 Build 0)  -->
<svg version="1.1" xmlns="http://www.w3.org/2000/svg" xmlns:xlink="http://www.w3.org/1999/xlink" x="0px" y="0px"
	 viewBox="0 0 1000 1000" style="enable-background:new 0 0 1000 1000;" xml:space="preserve">
<style type="text/css">
	.st0{display:none;}
	.st1{display:inline;fill:#FFFFFF;}
	.st2{fill-rule:evenodd;clip-rule:evenodd;fill:#FFFFFF;}
	.st3{fill:#FFFFFF;}
</style>
<g id="github" class="st0">
	<path class="st1" d="M500,1000L500,1000C223.9,1000,0,776.1,0,500v0C0,223.9,223.9,0,500,0h0c276.1,0,500,223.9,500,500v0
		C1000,776.1,776.1,1000,500,1000z"/>
</g>
<g id="twitter" class="st0">
	<path class="st1" d="M694.6,39.3C634.8,14,569,0,500,0C292.9,0,115.2,125.9,39.3,305.4C14,365.2,0,431,0,500
		c0,276.1,223.9,500,500,500c207.1,0,384.8-125.9,460.7-305.4C986,634.8,1000,569,1000,500C1000,292.9,874.1,115.2,694.6,39.3z
		 M742.2,375.8c0.2,5.3,0.4,10.8,0.4,16.2c0,165.2-125.7,355.6-355.6,355.6c-70.6,0-136.3-20.7-191.6-56.2
		c9.8,1.2,19.7,1.8,29.8,1.8c58.5,0,112.4-20,155.2-53.5c-54.7-1-100.8-37.1-116.8-86.8c7.6,1.5,15.5,2.2,23.5,2.2
		c11.4,0,22.4-1.5,32.9-4.4c-57.2-11.5-100.3-62-100.3-122.6c0-0.5,0-1,0-1.5c16.9,9.3,36.1,15,56.6,15.6
		c-33.5-22.4-55.6-60.7-55.6-104c0-22.9,6.2-44.3,16.9-62.8c61.7,75.6,153.7,125.4,257.6,130.6c-2.1-9.2-3.2-18.7-3.2-28.5
		c0-69,56-125,125-125c36,0,68.4,15.2,91.2,39.4c28.5-5.6,55.2-16,79.4-30.3c-9.3,29.2-29.1,53.7-55,69.2c25.3-3,49.4-9.7,71.8-19.7
		C787.8,336.1,766.7,358.1,742.2,375.8z"/>
</g>
<g id="patreon" class="st0">
	<path class="st1" d="M694.6,39.3C634.8,14,569,0,500,0C292.9,0,115.2,125.9,39.3,305.4C14,365.2,0,431,0,500
		c0,276.1,223.9,500,500,500c207.1,0,384.8-125.9,460.7-305.4C986,634.8,1000,569,1000,500C1000,292.9,874.1,115.2,694.6,39.3z
		 M302.5,793.3H195.4V208.5h107.1V793.3z M585.9,646.9c-121,0-219.4-98.2-219.4-218.9c0-121.1,98.4-219.6,219.4-219.6
		c120.6,0,218.7,98.5,218.7,219.6C804.6,548.7,706.5,646.9,585.9,646.9z"/>
</g>
<g id="discord" class="st0">
	<path class="st1" d="M454.2,523c0,33.9-24.3,61.5-54.9,61.5c-30.1,0-54.8-27.6-54.8-61.5c0-33.9,24.3-61.5,54.8-61.5
		C430.2,461.4,454.7,489.3,454.2,523z"/>
	<path class="st1" d="M657,523c0,33.9-24.1,61.5-54.9,61.5c-30.1,0-54.9-27.6-54.9-61.5c0-33.9,24.3-61.5,54.9-61.5
		C633,461.4,657.5,489.3,657,523z"/>
	<path class="st1" d="M694.6,39.3C634.8,14,569,0,500,0C292.9,0,115.2,125.9,39.3,305.4C14,365.2,0,431,0,500
		c0,276.1,223.9,500,500,500c207.1,0,384.8-125.9,460.7-305.4C986,634.8,1000,569,1000,500C1000,292.9,874.1,115.2,694.6,39.3z
		 M803.2,653.8c0,0.6-0.3,1.1-0.8,1.4c-52.2,38.3-102.8,61.6-152.7,77c-0.8,0.3-1.7,0-2.1-0.7c-11.5-16-22-32.9-31.2-50.7
		c-0.5-1,0-2.3,1-2.7c16.6-6.3,32.4-13.8,47.6-22.7c1.2-0.7,1.3-2.4,0.2-3.3c-3.2-2.4-6.4-4.9-9.5-7.4c-0.6-0.5-1.4-0.6-2-0.3
		c-98.7,45.6-206.9,45.6-306.8,0c-0.7-0.3-1.4-0.2-2,0.3c-3.1,2.5-6.3,5-9.5,7.4c-1.1,0.8-1,2.5,0.2,3.3c15.2,8.7,31,16.4,47.6,22.7
		c1.1,0.4,1.6,1.6,1.1,2.7c-9,17.8-19.4,34.7-31.2,50.7c-0.5,0.7-1.4,1-2.2,0.7c-49.6-15.4-100.2-38.7-152.4-77
		c-0.4-0.3-0.7-0.9-0.8-1.4c-10.6-113.9,11-229.2,90.2-347.4c0.2-0.3,0.5-0.6,0.8-0.7c38.9-17.9,80.6-31,124.2-38.5
		c0.8-0.1,1.6,0.2,2,0.9c5.4,9.5,11.5,21.8,15.7,31.8c46-7,92.6-7,139.5,0c4.2-9.8,10.1-22.2,15.5-31.8c0.4-0.7,1.2-1.1,2-0.9
		c43.6,7.5,85.3,20.7,124.3,38.5c0.3,0.1,0.6,0.4,0.8,0.7C781.8,407.8,815.9,522.2,803.2,653.8z"/>
</g>
<g id="Layer_2">
</g>
<g id="Layer_6">
	<g>
		<path class="st2" d="M500.5,0C224.9,0,1.4,223.4,1.4,499.1c0,220.5,143,407.6,341.3,473.6c24.9,4.6,34.1-10.8,34.1-24
			c0-11.9-0.5-51.2-0.7-92.9C237.3,886,208,796.9,208,796.9c-22.7-57.7-55.4-73-55.4-73c-45.3-31,3.4-30.3,3.4-30.3
			c50.1,3.5,76.5,51.4,76.5,51.4c44.5,76.3,116.8,54.2,145.2,41.5c4.5-32.3,17.4-54.3,31.7-66.7C298.6,707.1,182,664.3,182,473
			c0-54.5,19.5-99,51.4-134c-5.2-12.6-22.3-63.3,4.8-132.1c0,0,41.9-13.4,137.3,51.2c39.8-11.1,82.5-16.6,124.9-16.8
			c42.4,0.2,85.1,5.7,125,16.8c95.3-64.6,137.1-51.2,137.1-51.2c27.2,68.8,10.1,119.5,4.9,132.1c32,35,51.4,79.5,51.4,134
			c0,191.7-116.8,233.9-227.9,246.3c17.9,15.5,33.9,45.9,33.9,92.4c0,66.8-0.6,120.5-0.6,137c0,13.3,9,28.8,34.3,23.9
			c198.2-66.1,341-253.1,341-473.5C999.6,223.4,776.1,0,500.5,0z"/>
		<path class="st3" d="M190.4,716.6c-1.1,2.5-5,3.2-8.6,1.5c-3.6-1.6-5.7-5-4.5-7.5c1.1-2.6,5-3.3,8.6-1.6
			C189.6,710.7,191.7,714.1,190.4,716.6L190.4,716.6z M184.3,712.1L184.3,712.1z"/>
		<path class="st3" d="M210.6,739.2c-2.4,2.2-7,1.2-10.2-2.3c-3.3-3.5-3.9-8.1-1.5-10.4c2.5-2.2,7-1.2,10.2,2.3
			C212.5,732.3,213.1,736.9,210.6,739.2L210.6,739.2z M205.9,734.1L205.9,734.1z"/>
		<path class="st3" d="M230.3,767.9c-3.1,2.1-8.1,0.1-11.2-4.3c-3.1-4.4-3.1-9.8,0.1-11.9c3.1-2.1,8-0.2,11.2,4.2
			C233.5,760.4,233.5,765.7,230.3,767.9L230.3,767.9z M230.3,767.9L230.3,767.9z"/>
		<path class="st3" d="M257.3,795.7c-2.7,3-8.6,2.2-12.8-1.9c-4.4-4-5.6-9.7-2.8-12.8c2.8-3,8.6-2.2,12.9,1.9
			C258.9,786.9,260.2,792.7,257.3,795.7L257.3,795.7z M257.3,795.7L257.3,795.7z"/>
		<path class="st3" d="M294.5,811.8c-1.2,3.9-6.8,5.7-12.5,4c-5.7-1.7-9.3-6.3-8.2-10.2c1.2-3.9,6.8-5.8,12.5-4
			C292,803.3,295.6,807.8,294.5,811.8L294.5,811.8z M294.5,811.8L294.5,811.8z"/>
		<path class="st3" d="M335.3,814.8c0.1,4.1-4.7,7.5-10.6,7.6c-6,0.1-10.8-3.2-10.9-7.2c0-4.2,4.7-7.5,10.7-7.6
			C330.5,807.4,335.3,810.7,335.3,814.8L335.3,814.8z M335.3,814.8L335.3,814.8z"/>
		<path class="st3" d="M373.3,808.3c0.7,4-3.4,8.1-9.3,9.2c-5.8,1.1-11.2-1.4-11.9-5.4c-0.7-4.1,3.5-8.2,9.3-9.3
			C367.3,801.8,372.6,804.2,373.3,808.3L373.3,808.3z M373.3,808.3L373.3,808.3z"/>
	</g>
</g>
</svg>
